<svg width="1175" height="523" viewBox="0 0 1175 523" fill="none" xmlns="http://www.w3.org/2000/svg">
<path d="M644.508 477.982C644.508 485.655 642.745 491.827 639.218 496.498C635.691 501.139 630.957 503.459 625.016 503.459C618.674 503.459 613.77 501.216 610.305 496.73L609.887 502.531H601.997V431.25H610.583V457.841C614.048 453.541 618.829 451.391 624.924 451.391C631.019 451.391 635.799 453.696 639.264 458.305C642.76 462.915 644.508 469.226 644.508 477.239V477.982ZM635.923 477.007C635.923 471.16 634.793 466.643 632.535 463.457C630.276 460.27 627.028 458.677 622.789 458.677C617.127 458.677 613.058 461.306 610.583 466.566V488.284C613.213 493.544 617.313 496.174 622.882 496.174C626.997 496.174 630.199 494.58 632.488 491.394C634.778 488.207 635.923 483.412 635.923 477.007Z" fill="#627282"/>
<path d="M671.24 489.955L682.935 452.319H692.124L671.936 510.281C668.811 518.635 663.846 522.811 657.039 522.811L655.415 522.672L652.212 522.069V515.108L654.533 515.293C657.441 515.293 659.7 514.705 661.309 513.53C662.948 512.354 664.294 510.204 665.346 507.079L667.249 501.974L649.335 452.319H658.71L671.24 489.955Z" fill="#627282"/>
<path d="M738.998 434.963L758.49 486.753L777.935 434.963H793.111V502.531H781.416V480.256L782.576 450.463L762.62 502.531H754.22L734.31 450.509L735.471 480.256V502.531H723.776V434.963H738.998Z" fill="#627282"/>
<path d="M815.896 502.531H804.619V452.319H815.896V502.531ZM803.922 439.278C803.922 437.546 804.464 436.107 805.547 434.963C806.661 433.818 808.238 433.246 810.281 433.246C812.323 433.246 813.9 433.818 815.014 434.963C816.128 436.107 816.685 437.546 816.685 439.278C816.685 440.98 816.128 442.403 815.014 443.548C813.9 444.662 812.323 445.219 810.281 445.219C808.238 445.219 806.661 444.662 805.547 443.548C804.464 442.403 803.922 440.98 803.922 439.278Z" fill="#627282"/>
<path d="M824.062 476.961C824.062 472.042 825.037 467.618 826.986 463.689C828.935 459.729 831.673 456.697 835.2 454.593C838.727 452.458 842.781 451.391 847.36 451.391C854.135 451.391 859.627 453.572 863.835 457.934C868.074 462.296 870.363 468.082 870.703 475.29L870.75 477.936C870.75 482.886 869.791 487.31 867.872 491.208C865.985 495.106 863.263 498.123 859.704 500.257C856.177 502.392 852.093 503.459 847.452 503.459C840.367 503.459 834.69 501.108 830.42 496.406C826.181 491.672 824.062 485.376 824.062 477.518V476.961ZM835.34 477.936C835.34 483.102 836.407 487.155 838.542 490.094C840.677 493.002 843.647 494.457 847.452 494.457C851.258 494.457 854.213 492.971 856.317 490.001C858.451 487.031 859.519 482.685 859.519 476.961C859.519 471.887 858.42 467.865 856.224 464.895C854.058 461.925 851.103 460.44 847.36 460.44C843.678 460.44 840.754 461.91 838.588 464.849C836.422 467.757 835.34 472.119 835.34 477.936Z" fill="#627282"/>
<path d="M879.334 502.531V434.963H899.29C905.261 434.963 910.552 436.293 915.162 438.954C919.803 441.614 923.392 445.389 925.929 450.277C928.466 455.165 929.734 460.765 929.734 467.076V470.464C929.734 476.868 928.45 482.499 925.882 487.356C923.345 492.213 919.71 495.957 914.976 498.587C910.273 501.216 904.874 502.531 898.779 502.531H879.334ZM891.075 444.43V493.157H898.733C904.89 493.157 909.608 491.239 912.888 487.403C916.198 483.535 917.884 477.997 917.946 470.789V467.03C917.946 459.698 916.353 454.098 913.166 450.231C909.979 446.363 905.354 444.43 899.29 444.43H891.075Z" fill="#627282"/>
<path d="M937.205 476.961C937.205 472.042 938.18 467.618 940.129 463.689C942.078 459.729 944.816 456.697 948.343 454.593C951.87 452.458 955.923 451.391 960.503 451.391C967.278 451.391 972.77 453.572 976.978 457.934C981.217 462.296 983.506 468.082 983.846 475.29L983.893 477.936C983.893 482.886 982.934 487.31 981.015 491.208C979.128 495.106 976.405 498.123 972.847 500.257C969.32 502.392 965.236 503.459 960.595 503.459C953.51 503.459 947.833 501.108 943.563 496.406C939.324 491.672 937.205 485.376 937.205 477.518V476.961ZM948.483 477.936C948.483 483.102 949.55 487.155 951.685 490.094C953.82 493.002 956.79 494.457 960.595 494.457C964.401 494.457 967.356 492.971 969.46 490.001C971.594 487.031 972.662 482.685 972.662 476.961C972.662 471.887 971.563 467.865 969.367 464.895C967.201 461.925 964.246 460.44 960.503 460.44C956.821 460.44 953.897 461.91 951.731 464.849C949.565 467.757 948.483 472.119 948.483 477.936Z" fill="#627282"/>
<path d="M1005.52 440.114V452.319H1014.38V460.672H1005.52V488.702C1005.52 490.62 1005.89 492.012 1006.63 492.879C1007.4 493.714 1008.77 494.132 1010.72 494.132C1012.01 494.132 1013.33 493.977 1014.66 493.668V502.392C1012.09 503.104 1009.62 503.459 1007.23 503.459C998.572 503.459 994.24 498.68 994.24 489.12V460.672H985.979V452.319H994.24V440.114H1005.52Z" fill="#627282"/>
<path d="M1033.08 440.114V452.319H1041.94V460.672H1033.08V488.702C1033.08 490.62 1033.45 492.012 1034.19 492.879C1034.97 493.714 1036.33 494.132 1038.28 494.132C1039.58 494.132 1040.89 493.977 1042.22 493.668V502.392C1039.66 503.104 1037.18 503.459 1034.8 503.459C1026.13 503.459 1021.8 498.68 1021.8 489.12V460.672H1013.54V452.319H1021.8V440.114H1033.08Z" fill="#627282"/>
<path d="M1047.1 476.961C1047.1 472.042 1048.07 467.618 1050.02 463.689C1051.97 459.729 1054.71 456.697 1058.23 454.593C1061.76 452.458 1065.81 451.391 1070.39 451.391C1077.17 451.391 1082.66 453.572 1086.87 457.934C1091.11 462.296 1093.4 468.082 1093.74 475.29L1093.78 477.936C1093.78 482.886 1092.83 487.31 1090.91 491.208C1089.02 495.106 1086.3 498.123 1082.74 500.257C1079.21 502.392 1075.13 503.459 1070.49 503.459C1063.4 503.459 1057.72 501.108 1053.45 496.406C1049.22 491.672 1047.1 485.376 1047.1 477.518V476.961ZM1058.37 477.936C1058.37 483.102 1059.44 487.155 1061.58 490.094C1063.71 493.002 1066.68 494.457 1070.49 494.457C1074.29 494.457 1077.25 492.971 1079.35 490.001C1081.49 487.031 1082.55 482.685 1082.55 476.961C1082.55 471.887 1081.45 467.865 1079.26 464.895C1077.09 461.925 1074.14 460.44 1070.39 460.44C1066.71 460.44 1063.79 461.91 1061.62 464.849C1059.46 467.757 1058.37 472.119 1058.37 477.936Z" fill="#627282"/>
<path d="M1127.57 462.621C1126.08 462.374 1124.55 462.25 1122.97 462.25C1117.81 462.25 1114.33 464.23 1112.53 468.19V502.531H1101.25V452.319H1112.02L1112.3 457.934C1115.02 453.572 1118.8 451.391 1123.62 451.391C1125.23 451.391 1126.56 451.607 1127.61 452.04L1127.57 462.621Z" fill="#627282"/>
<path d="M1154.86 503.459C1147.71 503.459 1141.91 501.216 1137.45 496.73C1133.03 492.213 1130.82 486.212 1130.82 478.724V477.332C1130.82 472.32 1131.77 467.85 1133.69 463.921C1135.64 459.961 1138.37 456.882 1141.86 454.686C1145.36 452.489 1149.26 451.391 1153.56 451.391C1160.39 451.391 1165.67 453.572 1169.38 457.934C1173.13 462.296 1175 468.469 1175 476.451V480.998H1142.19C1142.53 485.144 1143.9 488.424 1146.32 490.837C1148.76 493.25 1151.82 494.457 1155.51 494.457C1160.67 494.457 1164.88 492.368 1168.13 488.192L1174.21 493.992C1172.2 496.993 1169.51 499.329 1166.13 501C1162.79 502.64 1159.03 503.459 1154.86 503.459ZM1153.51 460.44C1150.42 460.44 1147.91 461.523 1145.99 463.689C1144.1 465.854 1142.9 468.871 1142.37 472.738H1163.86V471.903C1163.61 468.128 1162.61 465.282 1160.84 463.364C1159.08 461.415 1156.63 460.44 1153.51 460.44Z" fill="#627282"/>
<path d="M1112.93 167H1143V216H1171V242H1143L1142.7 355.415C1142.7 361.522 1144.77 365.611 1148.92 367.683C1151.21 368.883 1155.02 369.482 1160.37 369.482C1161.78 369.482 1163.31 369.482 1164.95 369.482C1166.58 369.373 1168.82 369.438 1171 369.22V392.22C1167.62 393.202 1163.75 393.91 1160.04 394.346C1156.44 394.782 1152.51 395 1148.26 395C1134.52 395 1125.2 391.51 1120.29 384.531C1115.38 377.443 1112.93 368.283 1112.93 357.051V242H1081L1099 216H1112.93V167Z" fill="#627282"/>
<path d="M959 216L999 277.5L1039 216H1077L1018.57 301.294L1080 391H1042L999 325L956 391H918L979.426 301.294L921 216H959Z" fill="#3D83DF"/>
<path fill-rule="evenodd" clip-rule="evenodd" d="M880.918 220.722C869.25 214.907 857.2 212 844.769 212C820.123 212 800.167 220.668 784.9 238.004C769.633 255.341 762 277.899 762 305.68C762 333.892 769.579 355.859 784.737 371.58C799.895 387.193 818.379 395 840.188 395C849.131 395 857.146 394.139 864.234 392.416C877.429 389.401 888.497 383.586 897.439 374.972C902.783 370.019 907.581 363.665 911.834 355.913C916.196 348.052 918.759 340.945 919.522 334.592H890.569C888.388 342.237 884.681 348.967 879.446 354.782C870.286 364.796 858.018 369.803 842.642 369.803C826.176 369.803 814.017 364.527 806.165 353.974C800.554 346.356 796.761 337.698 794.771 324.274L921.733 297.033C921.363 286.911 920.572 279.079 919.358 273.538C917.396 261.909 913.47 251.733 907.581 243.011C901.474 233.859 892.587 226.429 880.918 220.722ZM890.485 279.397L793.205 300.357C793.542 278.017 800.449 260.885 808.946 251.896C818.106 242.205 829.448 237.359 842.97 237.359C861.835 237.359 875.303 244.358 883.373 258.357C886.62 263.968 888.991 270.981 890.485 279.397Z" fill="#627282"/>
<path d="M602 216.04H630V241.04C638.288 230.789 646.629 223.102 655.898 218.631C665.168 214.16 675.159 212 686.5 212C711.363 212 728.079 220.556 736.803 237.895C741.601 247.382 744 260.959 744 278.625V391H714V280.5C714 269.813 712.485 261.286 709.322 254.743C704.088 243.838 694.601 238.386 680.86 238.386C673.881 238.386 668.548 239.132 664.077 240.55C656.007 242.949 647.884 247.747 641.777 254.944C636.87 260.724 633.653 266.722 632.126 272.938C630.709 279.044 630 287.823 630 299.273V391.038H602V216.04Z" fill="#627282"/>
<path fill-rule="evenodd" clip-rule="evenodd" d="M116.638 221.759C104.875 214.5 89.7035 212 75.902 212C55.5284 212 35.9825 219.842 21.5238 236.382C7.17459 252.922 0 275.925 0 305.39C0 336.607 7.11982 361.208 21.3595 374.791C35.7086 388.264 52.5 395 73.6018 395C91 395 102.891 390.608 111.216 386.227C119.541 381.846 126.875 376 133 368C133 393.5 131.162 407.08 127 416.5C119.99 432.492 104.972 440.611 82.2986 440.611C67.9494 440.611 57.434 437.325 50.7523 430.753C46.4804 426.481 43.6325 420.402 42.2085 412.516H12.141C13.6745 430.589 20.9038 443.843 33.829 452.277C46.7543 460.821 62.5503 465 81.5 465C115.566 465 138.874 453.153 151.142 429.274C157.714 416.349 161 398.714 161 376.369V216H133V232.5V237.609C127.75 230.75 123.266 225.849 116.638 221.759ZM120.253 253.47C129.235 263.985 133.726 280.142 133.726 301.939C133.726 316.398 131.316 331.25 126.496 342.094C117.843 361.263 98.3021 370.847 77.0521 370.847C63.4697 370.847 50.496 365.699 42.3903 355.403C34.3942 344.997 30.3962 327.68 30.3962 307.854C30.3962 290.986 32.241 277.276 36.4754 266.943C44.75 246.75 60.5122 238.124 81.324 238.124C95.2351 238.124 111.271 242.954 120.253 253.47ZM357.905 351.952C348.813 363.454 337.367 369.204 323.565 369.204C303.192 369.204 289.171 360.113 281.504 341.93C277.451 332.4 275.424 322.422 275.424 308.84C275.424 291.971 277.451 279.638 281.504 268.685C289.062 248.202 303.082 237.96 323.565 237.96C343.939 237.96 357.96 246.076 365.627 265.464C369.68 275.541 371.768 287.59 371.768 301.61C371.768 324.613 367.106 340.342 357.905 351.952ZM275 216H247V461H275V368C280 376 288.897 383.006 294.155 386.292C303.137 392.097 314.255 395 327.509 395C344.377 395 359.165 389.797 371.871 379.391C391.916 362.961 402 337.155 402 298.817C402 270.447 394.983 248.65 381.072 233.424C367.161 218.089 350.237 212 330.302 212C316.829 212 305.109 215.286 295.141 221.858C288.131 226.24 280.5 232.5 275 241V216ZM502 212C477.5 212 457.251 220.67 442.429 237.52C427.919 254.016 420 276.15 420 303.499H420.006L420 303.501C420 330.85 427.919 352.984 442.429 369.48C457.251 386.33 477.5 395 502 395C526.5 395 546.749 386.33 561.571 369.48C576.081 352.984 584 330.85 584 303.501L583.995 303.499H584C584 276.15 576.081 254.016 561.571 237.52C546.749 220.67 526.5 212 502 212ZM450.313 303.501L450.307 303.499H450.313C450.313 285.599 454.702 270.033 462.586 257.141C470.779 243.741 484 237.042 502 237.042C520 237.042 533.221 243.741 541.414 257.141C549.298 270.033 553.687 285.599 553.687 303.499H553.692L553.687 303.501C553.687 321.401 549.298 336.967 541.414 349.859C533.221 363.259 520 369.958 502 369.958C484 369.958 470.779 363.259 462.586 349.859C454.702 336.967 450.313 321.401 450.313 303.501ZM189 216H219V391H189V216Z" fill="#3D83DF"/>
<path d="M219.911 168C219.911 176.862 212.773 184 203.911 184C195.05 184 187.911 176.862 187.911 168C187.911 159.138 195.111 152 203.911 152C212.711 152 219.911 159.138 219.911 168Z" fill="#3D83DF"/>
<path opacity="0.4" d="M219.189 16C219.189 24.8615 211.989 32 203.189 32C194.327 32 187.189 24.8 187.189 16C187.189 7.13846 194.327 0 203.189 0C211.989 0 219.189 7.2 219.189 16Z" fill="#3D83DF"/>
<path opacity="0.7" d="M296 91.8105C296 100.672 288.8 107.811 280 107.811C271.138 107.811 264 100.611 264 91.8105C264 83.0105 271.2 75.8105 280 75.8105C288.8 75.8105 296 82.949 296 91.8105Z" fill="#3D83DF"/>
<path opacity="0.15" d="M144 91.7502C144 100.612 136.814 107.75 127.969 107.75C119.125 107.75 112 100.612 112 91.7502C112 82.8888 119.186 75.7504 127.969 75.7504C136.814 75.6889 144 82.8888 144 91.7502Z" fill="#3D83DF"/>
<path opacity="0.1" d="M154.434 129.965C154.434 138.826 147.234 145.965 138.434 145.965C129.572 145.965 122.434 138.765 122.434 129.965C122.434 121.165 129.634 113.965 138.434 113.965C147.234 113.965 154.434 121.103 154.434 129.965Z" fill="#3D83DF"/>
<path opacity="0.2" d="M154.313 54.1367C154.313 62.9983 147.113 70.1367 138.313 70.1367C129.452 70.1367 122.313 62.9983 122.313 54.1367C122.313 45.2752 129.513 38.1367 138.313 38.1367C147.175 38.1367 154.313 45.2752 154.313 54.1367Z" fill="#3D83DF"/>
<path opacity="0.8" d="M285.449 129.664C285.449 138.526 278.311 145.664 269.449 145.664C260.588 145.664 253.449 138.464 253.449 129.664C253.449 120.864 260.588 113.664 269.449 113.664C278.311 113.664 285.449 120.864 285.449 129.664Z" fill="#3D83DF"/>
<path opacity="0.6" d="M285.509 53.8666C285.509 62.7112 278.309 69.8359 269.509 69.8359C260.647 69.8359 253.509 62.7112 253.509 53.8666C253.509 45.0221 260.709 37.8359 269.509 37.8359C278.309 37.8359 285.509 45.0221 285.509 53.8666Z" fill="#3D83DF"/>
<path opacity="0.05" d="M181.937 157.468C181.937 166.329 174.737 173.468 165.937 173.468C157.076 173.468 149.937 166.268 149.937 157.468C149.937 148.668 157.137 141.468 165.937 141.468C174.737 141.407 181.937 148.607 181.937 157.468Z" fill="#3D83DF"/>
<path opacity="0.3" d="M181.997 26.3926C181.997 35.2541 174.81 42.3926 165.966 42.3926C157.121 42.3926 149.997 35.1926 149.997 26.3926C149.997 17.531 157.183 10.3926 165.966 10.3926C174.872 10.3926 181.997 17.531 181.997 26.3926Z" fill="#3D83DF"/>
<path opacity="0.9" d="M257.766 157.468C257.766 166.329 250.628 173.468 241.766 173.468C232.905 173.468 225.766 166.268 225.766 157.468C225.766 148.606 232.905 141.468 241.766 141.468C250.628 141.468 257.766 148.606 257.766 157.468Z" fill="#3D83DF"/>
<path opacity="0.5" d="M257.886 26.332C257.886 35.1936 250.748 42.332 241.886 42.332C233.025 42.332 225.886 35.132 225.886 26.332C225.886 17.4705 233.025 10.332 241.886 10.332C250.748 10.332 257.886 17.4705 257.886 26.332Z" fill="#3D83DF"/>
</svg>
